<svg xmlns="http://www.w3.org/2000/svg" width="375" viewBox="0 0 375 375" height="375" version="1.0"><defs><clipPath id="a"><path d="M 104.417969 102.988281 L 270.917969 102.988281 L 270.917969 222.988281 L 104.417969 222.988281 Z M 104.417969 102.988281"/></clipPath></defs><g clip-path="url(#a)"><path fill="#FFF" d="M 127.894531 213.039062 L 127.894531 157.414062 L 176.660156 108.632812 L 188.652344 121.6875 L 206.558594 102.988281 L 269.472656 163.386719 L 270.914062 166.746094 L 270.914062 222.34375 L 261.566406 222.34375 L 261.566406 168.722656 L 206.835938 116.179688 L 194.96875 128.566406 L 225.113281 161.390625 L 226.355469 164.546875 L 226.355469 222.988281 L 217.007812 222.988281 L 217.007812 166.355469 L 188.503906 135.320312 L 156.621094 168.605469 L 156.621094 212.640625 L 204.945312 212.640625 L 204.945312 221.988281 L 147.265625 221.988281 L 147.265625 212.640625 L 147.273438 212.640625 L 147.273438 166.746094 L 148.589844 163.515625 L 182.183594 128.4375 L 176.386719 122.128906 L 137.238281 161.285156 L 137.238281 222.390625 L 104.421875 222.390625 L 104.421875 213.039062 Z M 127.894531 213.039062"/></g><path fill="#5CE1E6" d="M 187.039062 196.957031 L 174.75 196.957031 L 174.75 184.667969 L 187.066406 184.640625 Z M 174.75 178.921875 L 174.75 166.628906 L 187.058594 166.609375 L 187.066406 178.949219 Z M 192.78125 166.628906 L 205.070312 166.628906 L 205.070312 178.921875 L 192.777344 178.929688 Z M 205.070312 184.667969 L 205.070312 196.957031 L 192.78125 196.957031 L 192.773438 184.660156 Z M 205.070312 184.667969"/><g fill="#FFF"><g><g><path d="M 9.828125 0.328125 C 6.890625 0.328125 4.707031 -0.5 3.28125 -2.15625 C 1.863281 -3.8125 1.15625 -6.269531 1.15625 -9.53125 L 1.15625 -35.59375 L 8.078125 -35.59375 L 8.078125 -9.828125 C 8.078125 -8.691406 8.1875 -7.804688 8.40625 -7.171875 C 8.632812 -6.535156 9.109375 -6.21875 9.828125 -6.21875 C 10.535156 -6.21875 11 -6.523438 11.21875 -7.140625 C 11.445312 -7.765625 11.5625 -8.660156 11.5625 -9.828125 L 11.5625 -35.59375 L 18.484375 -35.59375 L 18.484375 -9.53125 C 18.484375 -6.269531 17.769531 -3.8125 16.34375 -2.15625 C 14.925781 -0.5 12.753906 0.328125 9.828125 0.328125 Z M 9.828125 0.328125" transform="translate(45.39 263.753)"/></g></g></g><g fill="#FFF"><g><g><path d="M 1.578125 -35.59375 L 12.515625 -35.59375 C 14.253906 -35.59375 15.597656 -35.195312 16.546875 -34.40625 C 17.503906 -33.625 18.148438 -32.519531 18.484375 -31.09375 C 18.816406 -29.675781 18.984375 -27.863281 18.984375 -25.65625 C 18.984375 -23.632812 18.71875 -22.054688 18.1875 -20.921875 C 17.664062 -19.796875 16.753906 -19.007812 15.453125 -18.5625 C 16.535156 -18.34375 17.316406 -17.800781 17.796875 -16.9375 C 18.273438 -16.082031 18.515625 -14.925781 18.515625 -13.46875 L 18.4375 0 L 11.484375 0 L 11.484375 -13.921875 C 11.484375 -14.921875 11.285156 -15.554688 10.890625 -15.828125 C 10.503906 -16.109375 9.800781 -16.25 8.78125 -16.25 L 8.78125 0 L 1.578125 0 Z M 10.53125 -22.421875 C 11.519531 -22.421875 12.015625 -23.5 12.015625 -25.65625 C 12.015625 -26.59375 11.972656 -27.296875 11.890625 -27.765625 C 11.804688 -28.234375 11.65625 -28.554688 11.4375 -28.734375 C 11.21875 -28.910156 10.898438 -29 10.484375 -29 L 8.828125 -29 L 8.828125 -22.421875 Z M 10.53125 -22.421875" transform="translate(65.029 263.753)"/></g></g></g><g fill="#FFF"><g><g><path d="M 1.578125 -35.59375 L 11.234375 -35.59375 C 13.828125 -35.59375 15.707031 -34.957031 16.875 -33.6875 C 18.050781 -32.414062 18.640625 -30.34375 18.640625 -27.46875 L 18.640625 -25.890625 C 18.640625 -22.492188 17.425781 -20.46875 15 -19.8125 C 16.488281 -19.425781 17.535156 -18.523438 18.140625 -17.109375 C 18.753906 -15.703125 19.0625 -13.835938 19.0625 -11.515625 C 19.0625 -7.734375 18.492188 -4.867188 17.359375 -2.921875 C 16.222656 -0.972656 14.179688 0 11.234375 0 L 1.578125 0 Z M 9.984375 -22.203125 C 10.585938 -22.203125 11 -22.429688 11.21875 -22.890625 C 11.445312 -23.347656 11.5625 -23.992188 11.5625 -24.828125 L 11.5625 -28.390625 C 11.5625 -29.546875 11.050781 -30.125 10.03125 -30.125 L 8.53125 -30.125 L 8.53125 -22.203125 Z M 9.234375 -6.25 C 11.085938 -6.25 12.015625 -7.132812 12.015625 -8.90625 L 12.015625 -13.34375 C 12.015625 -14.414062 11.851562 -15.226562 11.53125 -15.78125 C 11.21875 -16.332031 10.660156 -16.609375 9.859375 -16.609375 L 8.53125 -16.609375 L 8.53125 -6.296875 Z M 9.234375 -6.25" transform="translate(84.792 263.753)"/></g></g></g><g fill="#FFF"><g><g><path d="M 0.625 0 L 4.0625 -35.59375 L 16.125 -35.59375 L 19.515625 0 L 12.765625 0 L 12.265625 -5.765625 L 7.953125 -5.765625 L 7.546875 0 Z M 8.5 -11.4375 L 11.734375 -11.4375 L 10.15625 -29.546875 L 9.828125 -29.546875 Z M 8.5 -11.4375" transform="translate(104.637 263.753)"/></g></g></g><g fill="#FFF"><g><g><path d="M 1.578125 0 L 1.578125 -35.59375 L 8.90625 -35.59375 L 12.1875 -18.5625 L 12.1875 -35.59375 L 19.0625 -35.59375 L 19.0625 0 L 12.09375 0 L 8.53125 -17.8125 L 8.53125 0 Z M 1.578125 0" transform="translate(124.731 263.753)"/></g></g></g><g fill="#FFF"><g><g><path d="M 1.578125 -35.59375 L 11.234375 -35.59375 C 13.828125 -35.59375 15.707031 -34.957031 16.875 -33.6875 C 18.050781 -32.414062 18.640625 -30.34375 18.640625 -27.46875 L 18.640625 -25.890625 C 18.640625 -22.492188 17.425781 -20.46875 15 -19.8125 C 16.488281 -19.425781 17.535156 -18.523438 18.140625 -17.109375 C 18.753906 -15.703125 19.0625 -13.835938 19.0625 -11.515625 C 19.0625 -7.734375 18.492188 -4.867188 17.359375 -2.921875 C 16.222656 -0.972656 14.179688 0 11.234375 0 L 1.578125 0 Z M 9.984375 -22.203125 C 10.585938 -22.203125 11 -22.429688 11.21875 -22.890625 C 11.445312 -23.347656 11.5625 -23.992188 11.5625 -24.828125 L 11.5625 -28.390625 C 11.5625 -29.546875 11.050781 -30.125 10.03125 -30.125 L 8.53125 -30.125 L 8.53125 -22.203125 Z M 9.234375 -6.25 C 11.085938 -6.25 12.015625 -7.132812 12.015625 -8.90625 L 12.015625 -13.34375 C 12.015625 -14.414062 11.851562 -15.226562 11.53125 -15.78125 C 11.21875 -16.332031 10.660156 -16.609375 9.859375 -16.609375 L 8.53125 -16.609375 L 8.53125 -6.296875 Z M 9.234375 -6.25" transform="translate(155.059 263.753)"/></g></g></g><g fill="#FFF"><g><g><path d="M 9.828125 0.328125 C 6.890625 0.328125 4.707031 -0.5 3.28125 -2.15625 C 1.863281 -3.8125 1.15625 -6.269531 1.15625 -9.53125 L 1.15625 -35.59375 L 8.078125 -35.59375 L 8.078125 -9.828125 C 8.078125 -8.691406 8.1875 -7.804688 8.40625 -7.171875 C 8.632812 -6.535156 9.109375 -6.21875 9.828125 -6.21875 C 10.535156 -6.21875 11 -6.523438 11.21875 -7.140625 C 11.445312 -7.765625 11.5625 -8.660156 11.5625 -9.828125 L 11.5625 -35.59375 L 18.484375 -35.59375 L 18.484375 -9.53125 C 18.484375 -6.269531 17.769531 -3.8125 16.34375 -2.15625 C 14.925781 -0.5 12.753906 0.328125 9.828125 0.328125 Z M 9.828125 0.328125" transform="translate(174.905 263.753)"/></g></g></g><g fill="#FFF"><g><g><path d="M 1.25 0 L 1.25 -35.59375 L 8.125 -35.59375 L 8.125 0 Z M 1.25 0" transform="translate(194.543 263.753)"/></g></g></g><g fill="#FFF"><g><g><path d="M 1.578125 0 L 1.578125 -35.59375 L 8.703125 -35.59375 L 8.703125 -6.046875 L 16.03125 -6.046875 L 16.03125 0 Z M 1.578125 0" transform="translate(203.948 263.753)"/></g></g></g><g fill="#FFF"><g><g><path d="M 1.578125 -35.59375 L 11.390625 -35.59375 C 13.929688 -35.59375 15.835938 -34.890625 17.109375 -33.484375 C 18.378906 -32.078125 19.03125 -29.988281 19.0625 -27.21875 L 19.140625 -10.5625 C 19.171875 -7.050781 18.5625 -4.410156 17.3125 -2.640625 C 16.070312 -0.878906 14.015625 0 11.140625 0 L 1.578125 0 Z M 9.984375 -6.296875 C 11.285156 -6.296875 11.9375 -6.929688 11.9375 -8.203125 L 11.9375 -26.5625 C 11.9375 -27.363281 11.875 -27.960938 11.75 -28.359375 C 11.625 -28.765625 11.394531 -29.035156 11.0625 -29.171875 C 10.726562 -29.304688 10.21875 -29.375 9.53125 -29.375 L 8.75 -29.375 L 8.75 -6.296875 Z M 9.984375 -6.296875" transform="translate(220.396 263.753)"/></g></g></g><g fill="#FFF"><g><g><path d="M 1.578125 0 L 1.578125 -35.59375 L 8.65625 -35.59375 L 8.65625 -22.875 L 12.015625 -22.875 L 12.015625 -35.59375 L 19.109375 -35.59375 L 19.109375 0 L 12.015625 0 L 12.015625 -16.15625 L 8.65625 -16.15625 L 8.65625 0 Z M 1.578125 0" transform="translate(240.822 263.753)"/></g></g></g><g fill="#FFF"><g><g><path d="M 10.0625 0.328125 C 7.195312 0.328125 5.015625 -0.546875 3.515625 -2.296875 C 2.023438 -4.054688 1.28125 -6.523438 1.28125 -9.703125 L 1.28125 -26.640625 C 1.28125 -29.710938 2.023438 -32.023438 3.515625 -33.578125 C 5.015625 -35.140625 7.195312 -35.921875 10.0625 -35.921875 C 12.9375 -35.921875 15.117188 -35.140625 16.609375 -33.578125 C 18.109375 -32.023438 18.859375 -29.710938 18.859375 -26.640625 L 18.859375 -9.703125 C 18.859375 -6.492188 18.109375 -4.019531 16.609375 -2.28125 C 15.117188 -0.539062 12.9375 0.328125 10.0625 0.328125 Z M 10.0625 -6.21875 C 10.695312 -6.21875 11.125 -6.492188 11.34375 -7.046875 C 11.570312 -7.597656 11.6875 -8.367188 11.6875 -9.359375 L 11.6875 -26.765625 C 11.6875 -27.535156 11.582031 -28.160156 11.375 -28.640625 C 11.164062 -29.128906 10.742188 -29.375 10.109375 -29.375 C 8.921875 -29.375 8.328125 -28.476562 8.328125 -26.6875 L 8.328125 -9.328125 C 8.328125 -8.304688 8.453125 -7.53125 8.703125 -7 C 8.953125 -6.476562 9.40625 -6.21875 10.0625 -6.21875 Z M 10.0625 -6.21875" transform="translate(261.496 263.753)"/></g></g></g><g fill="#FFF"><g><g><path d="M 1.578125 0 L 1.578125 -35.59375 L 12.4375 -35.59375 L 15.421875 -13.875 L 18.390625 -35.59375 L 29.34375 -35.59375 L 29.34375 0 L 22.828125 0 L 22.828125 -25.65625 L 18.734375 0 L 12.34375 0 L 8 -25.65625 L 8 0 Z M 1.578125 0" transform="translate(281.632 263.753)"/></g></g></g><g fill="#FFF"><g><g><path d="M 1.578125 0 L 1.578125 -35.59375 L 15.828125 -35.59375 L 15.828125 -28.71875 L 8.828125 -28.71875 L 8.828125 -21.796875 L 15.53125 -21.796875 L 15.53125 -15.078125 L 8.828125 -15.078125 L 8.828125 -6.921875 L 16.28125 -6.921875 L 16.28125 0 Z M 1.578125 0" transform="translate(312.54 263.753)"/></g></g></g></svg>