<svg xmlns="http://www.w3.org/2000/svg" width="375" viewBox="0 0 375 375" height="375" version="1.0"><defs><clipPath id="a"><path d="M 104.417969 102.90625 L 270.917969 102.90625 L 270.917969 222.90625 L 104.417969 222.90625 Z M 104.417969 102.90625"/></clipPath></defs><g clip-path="url(#a)"><path d="M 127.894531 212.957031 L 127.894531 157.332031 L 176.660156 108.550781 L 188.652344 121.605469 L 206.558594 102.90625 L 269.472656 163.304688 L 270.914062 166.664062 L 270.914062 222.261719 L 261.566406 222.261719 L 261.566406 168.640625 L 206.835938 116.097656 L 194.96875 128.484375 L 225.113281 161.308594 L 226.355469 164.464844 L 226.355469 222.90625 L 217.007812 222.90625 L 217.007812 166.273438 L 188.503906 135.238281 L 156.621094 168.523438 L 156.621094 212.558594 L 204.945312 212.558594 L 204.945312 221.90625 L 147.265625 221.90625 L 147.265625 212.558594 L 147.273438 212.558594 L 147.273438 166.664062 L 148.589844 163.433594 L 182.183594 128.355469 L 176.386719 122.046875 L 137.238281 161.203125 L 137.238281 222.308594 L 104.421875 222.308594 L 104.421875 212.957031 Z M 127.894531 212.957031"/></g><path fill="#38B6FF" d="M 187.039062 196.875 L 174.75 196.875 L 174.75 184.585938 L 187.066406 184.558594 Z M 174.75 178.839844 L 174.75 166.546875 L 187.058594 166.527344 L 187.066406 178.867188 Z M 192.78125 166.546875 L 205.070312 166.546875 L 205.070312 178.839844 L 192.777344 178.84375 Z M 205.070312 184.585938 L 205.070312 196.875 L 192.78125 196.875 L 192.773438 184.578125 Z M 205.070312 184.585938"/><g><g><g><path d="M 9.828125 0.328125 C 6.898438 0.328125 4.722656 -0.5 3.296875 -2.15625 C 1.867188 -3.8125 1.15625 -6.269531 1.15625 -9.53125 L 1.15625 -35.609375 L 8.078125 -35.609375 L 8.078125 -9.828125 C 8.078125 -8.691406 8.1875 -7.804688 8.40625 -7.171875 C 8.632812 -6.535156 9.109375 -6.21875 9.828125 -6.21875 C 10.546875 -6.21875 11.015625 -6.523438 11.234375 -7.140625 C 11.453125 -7.765625 11.5625 -8.660156 11.5625 -9.828125 L 11.5625 -35.609375 L 18.484375 -35.609375 L 18.484375 -9.53125 C 18.484375 -6.269531 17.769531 -3.8125 16.34375 -2.15625 C 14.925781 -0.5 12.753906 0.328125 9.828125 0.328125 Z M 9.828125 0.328125" transform="translate(45.328 264.238)"/></g></g></g><g><g><g><path d="M 1.578125 -35.609375 L 12.515625 -35.609375 C 14.253906 -35.609375 15.597656 -35.210938 16.546875 -34.421875 C 17.503906 -33.640625 18.148438 -32.535156 18.484375 -31.109375 C 18.816406 -29.679688 18.984375 -27.863281 18.984375 -25.65625 C 18.984375 -23.644531 18.71875 -22.070312 18.1875 -20.9375 C 17.664062 -19.800781 16.757812 -19.015625 15.46875 -18.578125 C 16.539062 -18.347656 17.316406 -17.804688 17.796875 -16.953125 C 18.285156 -16.097656 18.53125 -14.9375 18.53125 -13.46875 L 18.453125 0 L 11.484375 0 L 11.484375 -13.921875 C 11.484375 -14.921875 11.289062 -15.554688 10.90625 -15.828125 C 10.519531 -16.109375 9.8125 -16.25 8.78125 -16.25 L 8.78125 0 L 1.578125 0 Z M 10.53125 -22.421875 C 11.519531 -22.421875 12.015625 -23.5 12.015625 -25.65625 C 12.015625 -26.59375 11.972656 -27.296875 11.890625 -27.765625 C 11.804688 -28.242188 11.65625 -28.570312 11.4375 -28.75 C 11.21875 -28.925781 10.898438 -29.015625 10.484375 -29.015625 L 8.828125 -29.015625 L 8.828125 -22.421875 Z M 10.53125 -22.421875" transform="translate(64.975 264.238)"/></g></g></g><g><g><g><path d="M 1.578125 -35.609375 L 11.234375 -35.609375 C 13.828125 -35.609375 15.710938 -34.972656 16.890625 -33.703125 C 18.066406 -32.429688 18.65625 -30.359375 18.65625 -27.484375 L 18.65625 -25.90625 C 18.65625 -22.507812 17.4375 -20.476562 15 -19.8125 C 16.5 -19.425781 17.550781 -18.523438 18.15625 -17.109375 C 18.757812 -15.703125 19.0625 -13.84375 19.0625 -11.53125 C 19.0625 -7.738281 18.492188 -4.867188 17.359375 -2.921875 C 16.234375 -0.972656 14.191406 0 11.234375 0 L 1.578125 0 Z M 9.984375 -22.21875 C 10.597656 -22.21875 11.015625 -22.445312 11.234375 -22.90625 C 11.453125 -23.363281 11.5625 -24.003906 11.5625 -24.828125 L 11.5625 -28.390625 C 11.5625 -29.554688 11.050781 -30.140625 10.03125 -30.140625 L 8.546875 -30.140625 L 8.546875 -22.21875 Z M 9.25 -6.265625 C 11.09375 -6.265625 12.015625 -7.144531 12.015625 -8.90625 L 12.015625 -13.34375 C 12.015625 -14.425781 11.851562 -15.242188 11.53125 -15.796875 C 11.21875 -16.347656 10.660156 -16.625 9.859375 -16.625 L 8.546875 -16.625 L 8.546875 -6.296875 Z M 9.25 -6.265625" transform="translate(84.746 264.238)"/></g></g></g><g><g><g><path d="M 0.625 0 L 4.0625 -35.609375 L 16.125 -35.609375 L 19.53125 0 L 12.765625 0 L 12.265625 -5.765625 L 7.953125 -5.765625 L 7.546875 0 Z M 8.5 -11.4375 L 11.734375 -11.4375 L 10.15625 -29.5625 L 9.828125 -29.5625 Z M 8.5 -11.4375" transform="translate(104.6 264.238)"/></g></g></g><g><g><g><path d="M 1.578125 0 L 1.578125 -35.609375 L 8.90625 -35.609375 L 12.1875 -18.578125 L 12.1875 -35.609375 L 19.0625 -35.609375 L 19.0625 0 L 12.109375 0 L 8.546875 -17.828125 L 8.546875 0 Z M 1.578125 0" transform="translate(124.703 264.238)"/></g></g></g><g><g><g><path d="M 1.578125 -35.609375 L 11.234375 -35.609375 C 13.828125 -35.609375 15.710938 -34.972656 16.890625 -33.703125 C 18.066406 -32.429688 18.65625 -30.359375 18.65625 -27.484375 L 18.65625 -25.90625 C 18.65625 -22.507812 17.4375 -20.476562 15 -19.8125 C 16.5 -19.425781 17.550781 -18.523438 18.15625 -17.109375 C 18.757812 -15.703125 19.0625 -13.84375 19.0625 -11.53125 C 19.0625 -7.738281 18.492188 -4.867188 17.359375 -2.921875 C 16.234375 -0.972656 14.191406 0 11.234375 0 L 1.578125 0 Z M 9.984375 -22.21875 C 10.597656 -22.21875 11.015625 -22.445312 11.234375 -22.90625 C 11.453125 -23.363281 11.5625 -24.003906 11.5625 -24.828125 L 11.5625 -28.390625 C 11.5625 -29.554688 11.050781 -30.140625 10.03125 -30.140625 L 8.546875 -30.140625 L 8.546875 -22.21875 Z M 9.25 -6.265625 C 11.09375 -6.265625 12.015625 -7.144531 12.015625 -8.90625 L 12.015625 -13.34375 C 12.015625 -14.425781 11.851562 -15.242188 11.53125 -15.796875 C 11.21875 -16.347656 10.660156 -16.625 9.859375 -16.625 L 8.546875 -16.625 L 8.546875 -6.296875 Z M 9.25 -6.265625" transform="translate(155.044 264.238)"/></g></g></g><g><g><g><path d="M 9.828125 0.328125 C 6.898438 0.328125 4.722656 -0.5 3.296875 -2.15625 C 1.867188 -3.8125 1.15625 -6.269531 1.15625 -9.53125 L 1.15625 -35.609375 L 8.078125 -35.609375 L 8.078125 -9.828125 C 8.078125 -8.691406 8.1875 -7.804688 8.40625 -7.171875 C 8.632812 -6.535156 9.109375 -6.21875 9.828125 -6.21875 C 10.546875 -6.21875 11.015625 -6.523438 11.234375 -7.140625 C 11.453125 -7.765625 11.5625 -8.660156 11.5625 -9.828125 L 11.5625 -35.609375 L 18.484375 -35.609375 L 18.484375 -9.53125 C 18.484375 -6.269531 17.769531 -3.8125 16.34375 -2.15625 C 14.925781 -0.5 12.753906 0.328125 9.828125 0.328125 Z M 9.828125 0.328125" transform="translate(174.898 264.238)"/></g></g></g><g><g><g><path d="M 1.25 0 L 1.25 -35.609375 L 8.125 -35.609375 L 8.125 0 Z M 1.25 0" transform="translate(194.545 264.238)"/></g></g></g><g><g><g><path d="M 1.578125 0 L 1.578125 -35.609375 L 8.703125 -35.609375 L 8.703125 -6.046875 L 16.046875 -6.046875 L 16.046875 0 Z M 1.578125 0" transform="translate(203.954 264.238)"/></g></g></g><g><g><g><path d="M 1.578125 -35.609375 L 11.40625 -35.609375 C 13.945312 -35.609375 15.851562 -34.898438 17.125 -33.484375 C 18.394531 -32.078125 19.039062 -29.992188 19.0625 -27.234375 L 19.15625 -10.578125 C 19.175781 -7.066406 18.566406 -4.425781 17.328125 -2.65625 C 16.085938 -0.882812 14.03125 0 11.15625 0 L 1.578125 0 Z M 9.984375 -6.296875 C 11.285156 -6.296875 11.9375 -6.929688 11.9375 -8.203125 L 11.9375 -26.578125 C 11.9375 -27.378906 11.875 -27.976562 11.75 -28.375 C 11.625 -28.769531 11.394531 -29.035156 11.0625 -29.171875 C 10.738281 -29.316406 10.226562 -29.390625 9.53125 -29.390625 L 8.75 -29.390625 L 8.75 -6.296875 Z M 9.984375 -6.296875" transform="translate(220.41 264.238)"/></g></g></g><g><g><g><path d="M 1.578125 0 L 1.578125 -35.609375 L 8.65625 -35.609375 L 8.65625 -22.875 L 12.015625 -22.875 L 12.015625 -35.609375 L 19.109375 -35.609375 L 19.109375 0 L 12.015625 0 L 12.015625 -16.171875 L 8.65625 -16.171875 L 8.65625 0 Z M 1.578125 0" transform="translate(240.844 264.238)"/></g></g></g><g><g><g><path d="M 10.078125 0.328125 C 7.203125 0.328125 5.015625 -0.546875 3.515625 -2.296875 C 2.023438 -4.054688 1.28125 -6.523438 1.28125 -9.703125 L 1.28125 -26.65625 C 1.28125 -29.71875 2.023438 -32.03125 3.515625 -33.59375 C 5.015625 -35.15625 7.203125 -35.9375 10.078125 -35.9375 C 12.953125 -35.9375 15.132812 -35.15625 16.625 -33.59375 C 18.113281 -32.03125 18.859375 -29.71875 18.859375 -26.65625 L 18.859375 -9.703125 C 18.859375 -6.492188 18.113281 -4.019531 16.625 -2.28125 C 15.132812 -0.539062 12.953125 0.328125 10.078125 0.328125 Z M 10.078125 -6.21875 C 10.710938 -6.21875 11.140625 -6.492188 11.359375 -7.046875 C 11.578125 -7.597656 11.6875 -8.375 11.6875 -9.375 L 11.6875 -26.78125 C 11.6875 -27.550781 11.582031 -28.175781 11.375 -28.65625 C 11.164062 -29.144531 10.742188 -29.390625 10.109375 -29.390625 C 8.921875 -29.390625 8.328125 -28.492188 8.328125 -26.703125 L 8.328125 -9.328125 C 8.328125 -8.304688 8.453125 -7.53125 8.703125 -7 C 8.953125 -6.476562 9.410156 -6.21875 10.078125 -6.21875 Z M 10.078125 -6.21875" transform="translate(261.527 264.238)"/></g></g></g><g><g><g><path d="M 1.578125 0 L 1.578125 -35.609375 L 12.4375 -35.609375 L 15.421875 -13.890625 L 18.40625 -35.609375 L 29.34375 -35.609375 L 29.34375 0 L 22.84375 0 L 22.84375 -25.65625 L 18.734375 0 L 12.359375 0 L 8 -25.65625 L 8 0 Z M 1.578125 0" transform="translate(281.672 264.238)"/></g></g></g><g><g><g><path d="M 1.578125 0 L 1.578125 -35.609375 L 15.828125 -35.609375 L 15.828125 -28.734375 L 8.828125 -28.734375 L 8.828125 -21.796875 L 15.546875 -21.796875 L 15.546875 -15.09375 L 8.828125 -15.09375 L 8.828125 -6.921875 L 16.296875 -6.921875 L 16.296875 0 Z M 1.578125 0" transform="translate(312.593 264.238)"/></g></g></g></svg>