<svg xmlns="http://www.w3.org/2000/svg" width="375" viewBox="0 0 375 375" height="375" version="1.0">
    <path fill="#FFF" d="M-37.5 -37.5H412.5V412.5H-37.5z"/>
    <path fill="#FFF" d="M-37.5 -37.5H412.5V412.5H-37.5z"/>
    <path fill="#A88905" d="M-37.5 -37.5H412.5V412.5H-37.5z"/>
    <g fill="#FFF">
        <g>
            <g>
                <path d="M 100.242188 -187.121094 L 13.632812 -187.121094 L 13.632812 0 L 99.707031 0 C 139.003906 0 159.585938 -30.207031 159.585938 -60.414062 C 159.585938 -76.183594 151.566406 -92.492188 131.785156 -102.648438 C 144.082031 -111.203125 149.695312 -124.300781 149.695312 -137.132812 C 149.695312 -161.726562 129.914062 -187.121094 100.242188 -187.121094 Z M 93.292969 -119.488281 L 58.808594 -119.488281 L 58.808594 -145.6875 L 93.828125 -145.6875 C 101.042969 -145.6875 105.054688 -139.269531 105.054688 -132.855469 C 105.054688 -126.171875 101.3125 -119.488281 93.292969 -119.488281 Z M 99.707031 -43.304688 L 58.808594 -43.304688 L 58.808594 -77.253906 L 99.707031 -77.253906 C 109.332031 -77.253906 114.144531 -68.699219 114.144531 -60.144531 C 114.144531 -51.589844 109.332031 -43.304688 99.707031 -43.304688 Z M 99.707031 -43.304688" transform="translate(159.759 337.558)"/>
            </g>
        </g>
    </g>
    <g fill="#FFF">
        <g>
            <g>
                <path d="M 80.222656 2.492188 C 113.605469 2.492188 146.992188 -16.941406 146.992188 -56.054688 L 146.992188 -174.394531 L 104.386719 -174.394531 L 104.386719 -56.304688 C 104.386719 -43.351562 91.929688 -36.871094 79.472656 -36.871094 C 67.265625 -36.871094 55.058594 -43.351562 55.058594 -56.304688 L 55.058594 -174.394531 L 12.457031 -174.394531 L 12.457031 -56.054688 C 12.457031 -16.441406 46.339844 2.492188 80.222656 2.492188 Z M 80.222656 2.492188" transform="translate(50.563 206.88)"/>
            </g>
        </g>
    </g>
</svg>